<svg xmlns="http://www.w3.org/2000/svg" viewBox="0 0 96 52" fill="none">
  <!-- Subtle clean rounded background so it pops on both light and dark browser tabs -->
  <rect width="96" height="52" rx="10" fill="#F4F3EF" />
  
  <!-- Bulb Rays -->
  <path d="M7.77 14.48C8.06 14.74 8.51 14.73 8.79 14.45C9.06 14.18 9.05 13.75 8.76 13.5L8.27 13.99L7.77 14.48ZM6.3 11.31C6.02 11.06 5.56 11.07 5.29 11.34C5.02 11.61 5.03 12.04 5.32 12.3L5.81 11.81L6.3 11.31ZM8.27 13.99L8.76 13.5L6.3 11.31L5.81 11.81L5.32 12.3L7.77 14.48L8.27 13.99Z" fill="#141412"/>
  <path d="M15.76 11.99C15.76 12.37 16.07 12.69 16.46 12.69C16.84 12.69 17.15 12.38 17.15 11.99L16.46 11.99L15.76 11.99ZM17.16 8.81C17.16 8.43 16.85 8.12 16.47 8.12C16.08 8.11 15.77 8.43 15.77 8.81L16.46 8.81L17.16 8.81ZM16.46 11.99L17.15 11.99L17.16 8.81L16.46 8.81L15.77 8.81L15.76 11.99L16.46 11.99Z" fill="#141412"/>
  <path d="M26.98 12.44C27.25 12.16 27.22 11.73 26.93 11.49C26.63 11.24 26.18 11.26 25.91 11.54L26.45 11.99L26.98 12.44ZM23.65 13.9C23.39 14.18 23.41 14.61 23.7 14.86C24 15.11 24.45 15.08 24.72 14.8L24.19 14.35L23.65 13.9ZM26.45 11.99L25.91 11.54L23.65 13.9L24.19 14.35L24.72 14.8L26.98 12.44L26.45 11.99Z" fill="#141412"/>
  
  <!-- Outer Pebble Outline -->
  <path d="M55.47 5.59C62.69 3.32 73.76 0.27 84.23 9.42C87.36 12.32 91.08 17.51 92.16 23.57C93.22 29.55 91.75 36.53 84.23 43.25C83.06 44.29 80.92 45.29 77.85 46.09C74.82 46.88 71.02 47.44 66.66 47.71C57.95 48.24 47.14 47.57 36.03 45.23L36.01 45.23L35.98 45.22L35.47 45.13C32.83 44.65 29.09 43.6 25.88 41.96C22.41 40.18 19.97 37.91 19.62 35.24C19.63 34.61 19.87 33.74 20.42 32.63C20.98 31.51 21.81 30.24 22.89 28.85C25.05 26.08 28.11 22.97 31.67 19.9C38.83 13.76 47.86 7.97 55.47 5.59Z" stroke="#141412" stroke-width="2.6" fill="none"/>
  
  <!-- Bulb Base & Screw Threads -->
  <path d="M12.84 34.24H16.22V35.15H15.02V36.06H16.22V37.19H12.84V36.06H15.02V35.15L12.84 35.18V34.24Z" fill="#141412"/>
  <path d="M16.22 38.1H12.84C13.04 38.83 13.57 39.16 13.81 39.24H16.22V38.1Z" fill="#141412"/>
  <path d="M17.47 33.12H12.4C12.4 30.76 11.44 29.03 10.71 28.58C7.04 25.85 7.57 21.08 8.3 19.04C10.42 13.59 16.59 13.9 19.4 14.73C24.44 16.21 25.64 21.75 25.2 23.58C24.66 25.8 21.82 29.26 20.37 30.17C18.39 31.41 18.28 31.98 17.47 33.12Z" fill="#141412"/>
  <path d="M6.08 21.75H2.7" stroke="#141412" stroke-width="1.4" stroke-linecap="round"/>
  <path d="M30.42 21.98C30.81 21.96 31.1 21.64 31.09 21.25C31.07 20.87 30.74 20.57 30.36 20.58L30.39 21.28L30.42 21.98ZM26.98 20.72C26.6 20.73 26.3 21.06 26.31 21.44C26.33 21.83 26.66 22.13 27.04 22.11L27.01 21.41L26.98 20.72ZM30.39 21.28L30.36 20.58L26.98 20.72L27.01 21.41L27.04 22.11L30.42 21.98L30.39 21.28Z" fill="#141412"/>
  
  <!-- Green "e" inside bulb -->
  <path d="M16.43 26.93C15.4 26.93 14.47 26.72 13.67 26.31C12.86 25.89 12.23 25.3 11.77 24.54C11.31 23.77 11.08 22.86 11.08 21.82C11.08 20.79 11.29 19.88 11.7 19.1C12.12 18.31 12.71 17.7 13.48 17.27C14.25 16.82 15.17 16.6 16.23 16.6C16.8 16.6 17.36 16.7 17.89 16.91C18.43 17.11 18.91 17.4 19.34 17.78C19.77 18.15 20.11 18.6 20.36 19.11C20.61 19.63 20.74 20.2 20.74 20.82C20.74 21.11 20.68 21.31 20.56 21.44C20.44 21.56 20.28 21.64 20.07 21.68C19.86 21.72 19.62 21.75 19.35 21.78L12.89 21.96C12.89 22.7 13.05 23.33 13.37 23.84C13.69 24.34 14.12 24.73 14.66 24.99C15.21 25.24 15.82 25.37 16.5 25.37C16.99 25.37 17.39 25.31 17.73 25.18C18.06 25.06 18.36 24.9 18.61 24.7C18.87 24.49 19.13 24.27 19.38 24.04C19.56 23.89 19.74 23.82 19.94 23.82C20.17 23.82 20.37 23.89 20.52 24.03C20.68 24.17 20.76 24.35 20.76 24.59C20.76 24.95 20.61 25.28 20.31 25.57C20.01 25.86 19.64 26.1 19.18 26.31C18.73 26.5 18.26 26.66 17.76 26.77C17.27 26.87 16.83 26.93 16.43 26.93ZM12.86 20.76L17.98 20.65C18.13 20.63 18.28 20.6 18.41 20.55C18.54 20.5 18.61 20.41 18.61 20.28C18.61 19.73 18.49 19.3 18.26 18.98C18.03 18.65 17.73 18.41 17.37 18.27C17.01 18.12 16.63 18.05 16.23 18.05C15.23 18.05 14.43 18.3 13.85 18.79C13.26 19.28 12.93 19.93 12.86 20.76Z" fill="#8FC45A"/>
  
  <!-- Bold Crisp Typography for E.CELL and AIT PUNE -->
  <text x="60" y="29.5" text-anchor="middle" fill="#141412" font-family="-apple-system, BlinkMacSystemFont, 'Segoe UI', Roboto, sans-serif" font-weight="900" font-size="14.5" letter-spacing="0.06em">E.CELL</text>
  <text x="67" y="39.5" text-anchor="middle" fill="#141412" font-family="-apple-system, BlinkMacSystemFont, 'Segoe UI', Roboto, sans-serif" font-weight="800" font-size="7" letter-spacing="0.14em">AIT PUNE</text>
</svg>
